Coordinates
version=1
nRows=15
nColumns=34
inDegrees=yes

Units are S.I. units (second, meters, Newtons, ...)
If the header above contains a line with 'inDegrees', this indicates whether rotational values are in degrees (yes) or radians (no).

endheader
time	pelvis_tilt	pelvis_list	pelvis_rotation	pelvis_tx	pelvis_ty	pelvis_tz	hip_flexion_r	hip_adduction_r	hip_rotation_r	knee_angle_r	ankle_angle_r	subtalar_angle_r	mtp_angle_r	hip_flexion_l	hip_adduction_l	hip_rotation_l	knee_angle_l	ankle_angle_l	subtalar_angle_l	mtp_angle_l	lumbar_extension	lumbar_bending	lumbar_rotation	arm_flex_r	arm_add_r	arm_rot_r	elbow_flex_r	pro_sup_r	arm_flex_l	arm_add_l	arm_rot_l	elbow_flex_l	pro_sup_l
      1.13333330	    -37.21974855	    -50.87769102	    -60.54808170	      0.07616573	      0.60026023	     -0.05679315	      3.62560077	      0.97824325	    -23.08504649	     11.68694180	     14.22311095	      7.16402658	      0.00000000	      7.03281034	     -2.03348695	     -4.96591718	      0.00000000	     32.91939063	     13.80700585	      0.00000000	     -4.84238887	      4.45300241	     -4.56796913	      4.78427061	     -6.92490678	     19.21859569	     21.64083505	    116.86683564	      4.16067914	     -5.00372485	     18.84090981	     27.00510430	    116.96389098
      1.15000000	    -37.18659807	    -50.86510868	    -60.59077259	      0.07632225	      0.60027729	     -0.05663082	      3.61947468	      0.95105800	    -23.07964937	     11.69035323	     14.22889893	      7.15759605	      0.00000000	      7.00548586	     -2.00602955	     -4.96798136	      0.00000000	     32.92029510	     13.80714262	      0.00000000	     -4.84560047	      4.50067027	     -4.61761480	      4.73870574	     -6.93958707	     19.21473941	     21.62474972	    116.86524843	      4.16901505	     -5.02867529	     18.83575326	     27.00008332	    116.96415676
      1.16666670	    -37.03646981	    -50.93296453	    -60.50804422	      0.07692755	      0.60046512	     -0.05633175	      3.52943905	      0.87359236	    -22.96965731	     11.83008807	     14.31992616	      7.12213683	      0.00000000	      6.82989365	     -1.94125465	     -5.01349634	      0.00000000	     33.01116800	     13.76295296	      0.00000000	     -4.72999565	      4.60010603	     -4.78365746	      4.61343388	     -7.08670137	     19.13081696	     21.51011775	    116.84036861	      3.92988500	     -4.99225441	     18.86883645	     26.90964971	    116.97813027
      1.18333330	    -36.54986227	    -50.98079013	    -60.17317468	      0.07702447	      0.60120490	     -0.05577395	      3.33135694	      0.65530671	    -22.78510355	     11.92867625	     14.68370743	      6.97569704	      0.00000000	      6.56337491	     -1.73396443	     -5.00066414	      0.00000000	     33.33459479	     13.72922198	      0.00000000	     -4.77117649	      4.44373659	     -4.96379980	      4.64160186	     -7.07656832	     18.78717247	     21.20198953	    116.73999630	      3.79414887	     -5.14873484	     18.92078393	     26.80977192	    117.02098038
      1.20000000	    -36.46616247	    -50.98519780	    -60.15876723	      0.07688172	      0.60175619	     -0.05535586	      3.31512386	      0.64335540	    -22.76201273	     11.98443742	     14.68090161	      6.97561178	      0.00000000	      6.50191324	     -1.74389264	     -4.99771599	      0.00000000	     33.31991480	     13.72865634	      0.00000000	     -4.71509623	      4.50445986	     -4.99909737	      4.55894211	     -7.24956234	     18.74054929	     21.11653026	    116.72926226	      3.76070942	     -5.29557683	     18.90199675	     26.77364891	    117.02023115
      1.21666670	    -35.41867633	    -51.11347938	    -59.29634217	      0.07763969	      0.60236186	     -0.05493228	      2.90030911	      0.05478345	    -22.66621781	     12.33453918	     15.11171451	      6.82192914	      0.00000000	      5.93682099	     -1.21724319	     -4.85209182	      0.00000000	     33.24506652	     13.64060790	      0.00000000	     -4.95644653	      3.97083919	     -5.22711825	      4.52672835	     -7.04653472	     17.31991450	     20.45691290	    116.36801238	      3.48490634	     -5.54984361	     18.98398200	     26.82503050	    117.10695144
      1.23333330	    -35.37156907	    -51.13154460	    -59.30430265	      0.07723382	      0.60269081	     -0.05448658	      2.88953261	      0.06948584	    -22.65851798	     12.37032980	     15.12473649	      6.82183022	      0.00000000	      5.89732202	     -1.24864230	     -4.85568109	      0.00000000	     33.27650544	     13.62003805	      0.00000000	     -4.92270672	      3.93802120	     -5.27976721	      4.43520883	     -7.29648132	     17.25869962	     20.37674762	    116.35549456	      3.42834579	     -5.75137643	     18.94702601	     26.75610553	    117.10250596
      1.25000000	    -34.45216081	    -51.24216975	    -58.47399420	      0.07853918	      0.60323489	     -0.05386827	      2.43313644	     -0.46672640	    -22.94270158	     12.60678304	     15.68288436	      7.04061124	      0.00000000	      5.35336278	     -0.74611171	     -4.44602830	      0.00000000	     33.35442317	     13.00666686	      0.00000000	     -5.09199210	      3.45909154	     -5.48897687	      3.98314620	     -7.01888238	     14.34184237	     20.40418303	    115.73163035	      3.11770389	     -5.83351067	     17.71837275	     26.54345482	    117.00004168
      1.26666670	    -34.43810175	    -51.24442665	    -58.51696732	      0.07869150	      0.60359094	     -0.05355006	      2.41735269	     -0.46756974	    -22.92439107	     12.61798055	     15.68899541	      7.05968333	      0.00000000	      5.30928481	     -0.75885686	     -4.41320768	      0.00000000	     33.37838373	     13.00523851	      0.00000000	     -5.06021228	      3.44147280	     -5.50864719	      3.87565674	     -7.24660769	     14.28364398	     20.33851584	    115.72325960	      3.05135295	     -6.12279656	     17.64830848	     26.45008129	    116.99170123
      1.28333330	    -34.36010589	    -51.22961202	    -58.57175517	      0.07937777	      0.60470000	     -0.05243277	      2.29286097	     -0.44625003	    -22.83214300	     12.54323296	     15.77142093	      7.15935027	      0.00000000	      5.17745993	     -0.77540291	     -4.31877685	      0.00000000	     33.55396719	     12.89726761	      0.00000000	     -4.86562849	      3.29498669	     -5.53678358	      3.49696039	     -7.28441650	     14.11284145	     20.28972375	    115.70012856	      2.79763233	     -6.39859500	     17.38502294	     26.19545688	    116.95599990
      1.30000000	    -34.27913558	    -51.13841122	    -58.48825277	      0.07996246	      0.60500267	     -0.05181657	      2.21345240	     -0.51657717	    -22.98726884	     12.36255726	     15.96177480	      7.60299140	      0.00000000	      5.17282313	     -0.68007171	     -3.18477270	      0.00000000	     33.38750661	     11.48145188	      0.00000000	     -4.82774319	      3.19135516	     -5.69415413	      2.93050364	     -7.10037570	     10.71090569	     21.07972438	    115.45869810	      2.38844103	     -6.04769251	     13.31706602	     26.41898727	    116.68154241
      1.31666670	    -34.27014416	    -51.08503010	    -58.53505332	      0.08055015	      0.60576664	     -0.05113177	      2.17705174	     -0.48921871	    -22.96377024	     12.29228575	     15.95668876	      7.63711560	      0.00000000	      5.15341389	     -0.68864527	     -3.20695877	      0.00000000	     33.34486296	     11.42731794	      0.00000000	     -4.78755985	      3.10316907	     -5.80295810	      2.73287314	     -7.14117095	     10.68970365	     21.10248064	    115.48539673	      2.38425175	     -6.40755667	     13.16735796	     26.26934448	    116.68628153
      1.33333330	    -34.26115493	    -50.91891635	    -58.49898830	      0.08119192	      0.60624997	     -0.05064556	      2.12394295	     -0.48698256	    -22.88453167	     11.95581900	     15.94654289	      7.68670043	      0.00000000	      5.26036632	     -0.59095955	     -3.21761007	      0.00000000	     33.17034660	     11.38332843	      0.00000000	     -4.61556182	      2.95648148	     -6.08407708	      2.43078329	     -7.26138736	     10.57843890	     21.48924993	    115.56639887	      2.35686191	     -6.62675336	     12.67844040	     26.01529831	    116.69585471
      1.35000000	    -34.26122349	    -50.89848134	    -58.54316073	      0.08126685	      0.60688984	     -0.05051172	      2.14153780	     -0.46002864	    -22.85778712	     11.98480299	     15.92057684	      7.70102714	      0.00000000	      5.25154259	     -0.61930788	     -3.23989435	      0.00000000	     33.16110244	     11.37822376	      0.00000000	     -4.63004236	      2.88703635	     -6.22959087	      2.29171213	     -7.39908957	     10.55037038	     21.47992197	    115.57060131	      2.46245894	     -6.90567322	     12.58057057	     25.98948270	    116.68919937
      1.36666670	    -34.37526862	    -50.58440724	    -58.26924486	      0.08141620	      0.60730679	     -0.04994374	      2.38245275	     -0.47311175	    -22.95035872	     11.90388518	     15.77488550	      7.22961673	      0.00000000	      5.57976009	     -0.52977277	     -3.35647290	      0.00000000	     33.07532759	     12.02881603	      0.00000000	     -4.28931972	      2.64759747	     -6.90805877	      1.61902587	     -7.45298142	     10.07101664	     22.72808242	    115.77101501	      2.37091605	     -7.15598951	     11.42710869	     26.15867149	    116.76796495
